PathFileType	4	(X/Y/Z)	G:\マイドライブ\biomec\experimentalData\240725\CJ2.trc
DataRate	CameraRate	NumFrames	NumMarkers	Units	OrigDataRate	OrigDataStartFrame	OrigNumFrames
200.00	200.00	      4	52	mm	200.00	832	      1662
Frame#	Time	handR			wrRI			wrRO			elbRI			elbRO			shRF			shRU			shRB			handL			wrLI			wrLO			elbLI			elbLO			shLF			shLU			shLB			toeR			baRI			baRO			heelR			anRI			anRO			knRI			knRO			troR			toeL			baLI			baLO			heelL			anLI			anLO			knLI			knLO			troL			head			earR			earL			clav			c7			ribR			ribL			xiph			ASISR			ASISL			PSISR			PSISL			t8			t11			L1			L3			LS			COX			
		X1	Y1	Z1	X2	Y2	Z2	X3	Y3	Z3	X4	Y4	Z4	X5	Y5	Z5	X6	Y6	Z6	X7	Y7	Z7	X8	Y8	Z8	X9	Y9	Z9	X10	Y10	Z10	X11	Y11	Z11	X12	Y12	Z12	X13	Y13	Z13	X14	Y14	Z14	X15	Y15	Z15	X16	Y16	Z16	X17	Y17	Z17	X18	Y18	Z18	X19	Y19	Z19	X20	Y20	Z20	X21	Y21	Z21	X22	Y22	Z22	X23	Y23	Z23	X24	Y24	Z24	X25	Y25	Z25	X26	Y26	Z26	X27	Y27	Z27	X28	Y28	Z28	X29	Y29	Z29	X30	Y30	Z30	X31	Y31	Z31	X32	Y32	Z32	X33	Y33	Z33	X34	Y34	Z34	X35	Y35	Z35	X36	Y36	Z36	X37	Y37	Z37	X38	Y38	Z38	X39	Y39	Z39	X40	Y40	Z40	X41	Y41	Z41	X42	Y42	Z42	X43	Y43	Z43	X44	Y44	Z44	X45	Y45	Z45	X46	Y46	Z46	X47	Y47	Z47	X48	Y48	Z48	X49	Y49	Z49	X50	Y50	Z50	X51	Y51	Z51	X52	Y52	Z52	

832	4.155	568.63440	748.35687	954.99701	522.92993	678.58179	969.12079	503.09265	735.67609	1016.25854	434.12067	634.68579	1199.58301	479.76651	568.05554	1192.09924	736.75043	748.86401	1275.33435	693.14728	730.04987	1323.71021	630.31409	731.73486	1316.86755	581.31757	1042.34460	938.12842	530.50568	1118.33240	954.39337	529.99792	1058.93591	1004.63501	446.09296	1175.60913	1174.53906	495.43417	1242.08264	1159.06348	730.88086	1049.40271	1279.21863	686.35931	1075.25647	1325.52368	610.01233	1063.37134	1299.30115	701.50732	727.99475	36.50906	622.25494	784.99506	31.42225	588.75208	664.86621	46.81261	419.75314	775.44482	67.44461	529.25806	812.81812	116.92004	502.27667	718.89905	124.06123	728.58893	815.81494	421.05020	729.59760	701.65253	422.95343	522.65088	718.58972	769.42438	708.71765	1084.16418	38.53521	640.25250	1032.54602	47.86573	606.65649	1142.93262	47.90691	427.07639	1060.13501	69.18598	545.49707	1016.20465	137.80322	510.82544	1105.67456	127.57086	727.91168	1005.37360	437.51215	714.41107	1122.40918	450.29834	500.68741	1066.82788	764.66986	612.19788	914.48975	1526.67834	735.95380	829.30365	1412.29297	734.03925	990.88043	1406.05127	757.57458	907.01794	1245.06067	639.64783	908.65662	1330.70886	621.70837	792.98065	954.15356	609.16260	1009.66620	951.06628	744.00018	904.74475	1073.07117	584.10345	793.30884	829.91101	566.15924	1012.99915	836.76941	417.45505	832.61749	892.75513	413.28799	951.74384	895.87390	520.75732	902.64850	1153.23914	481.79996	902.23438	1034.15015	462.00348	902.88788	978.09589	437.30109	895.42755	932.02155	404.47845	892.70215	889.11597	360.28073	886.81873	775.48212	
833	4.160	569.79498	748.43671	967.36066	524.23840	678.84564	981.18237	504.33215	735.98071	1028.56213	433.41910	634.37048	1211.03772	479.23474	567.88080	1203.98438	734.22882	749.10559	1292.40149	690.09021	730.28656	1339.98022	627.40070	731.48376	1331.86182	583.14075	1041.89966	950.88599	532.08356	1117.89465	966.81445	531.07147	1058.09546	1016.74103	444.95386	1174.28333	1185.88586	494.27441	1240.91895	1171.38245	728.11267	1048.97449	1295.86108	682.75873	1074.83752	1341.66565	606.56348	1062.95605	1313.94775	701.75165	727.86078	36.34905	622.42450	784.72571	31.81269	589.12500	664.52069	46.94307	420.17236	775.01556	69.89159	529.95618	811.96198	118.48676	502.97729	718.20599	125.60476	725.53394	815.04651	425.94543	725.62323	701.11853	428.17206	526.17712	718.84888	779.85535	708.86218	1084.28076	38.32399	640.57336	1032.82312	48.11964	607.09906	1143.37061	48.14370	427.73169	1060.62415	71.73386	546.38239	1017.33453	139.48985	511.43481	1106.41455	129.04289	725.57452	1007.43054	442.31647	710.88049	1123.78711	455.00552	503.26578	1066.05762	774.20477	612.07318	914.42340	1543.90100	733.54468	829.24634	1427.16101	731.48853	990.99310	1420.75598	754.62714	907.09570	1261.06384	636.03204	908.40344	1345.80994	623.22668	792.76581	967.87299	610.69867	1009.05493	964.98376	743.69342	904.58813	1088.86987	587.85791	792.86621	842.43127	568.87000	1013.01904	849.00916	420.77701	832.52588	903.40234	416.21240	951.61694	906.74933	519.38324	902.07904	1165.63733	482.32089	901.84851	1045.55078	463.56793	902.48901	989.25305	439.81555	895.20441	942.78351	407.56815	892.51947	899.77173	364.19620	887.01056	786.29028	
834	4.165	570.74713	749.26453	979.64087	525.79938	679.27313	993.05029	505.68091	736.18060	1040.72803	432.88901	633.97174	1222.21594	478.76367	567.72491	1215.56519	731.56976	749.14819	1309.45361	686.92944	730.39087	1356.51514	624.29364	731.10034	1347.15735	584.90973	1041.49023	963.84430	533.43848	1117.20630	979.32166	532.08258	1057.38403	1029.17981	443.57394	1172.95740	1197.76990	492.68768	1239.83032	1183.77661	725.06238	1048.78198	1312.53235	678.94537	1074.44934	1357.76147	603.35089	1062.59875	1328.59680	701.95691	727.80273	36.17744	623.79816	785.10199	32.17596	589.41895	664.22394	47.12536	421.43607	774.68353	72.06026	530.24011	810.91620	120.52995	503.79684	717.25336	127.02203	721.94196	814.27814	431.11560	721.39349	701.02576	433.66116	529.51630	719.46887	790.54419	708.97540	1084.36560	38.12861	640.88080	1033.17834	48.45841	607.55615	1143.80042	48.29564	428.40640	1061.19946	74.02341	547.33270	1018.52502	141.21933	511.75494	1107.41138	130.49257	722.46558	1009.38568	447.60153	706.41254	1124.75012	460.08078	506.16760	1065.76440	784.13312	612.11774	914.42328	1561.16980	731.20782	829.47559	1442.24683	728.60394	991.24243	1435.40784	751.64142	906.82599	1277.30273	632.44427	908.19336	1360.91406	624.68127	792.57599	981.98676	612.31830	1008.39374	978.39618	743.28387	904.02936	1105.06274	591.46564	792.96051	854.76538	572.26563	1013.19434	861.67731	423.69348	832.67816	914.49609	419.28336	951.56171	917.72571	517.86023	901.65753	1178.16162	482.87933	901.46539	1057.33691	465.22168	902.09503	1000.62543	442.16412	894.96265	953.90790	410.67361	892.71643	910.60614	368.22192	886.96375	797.23706	
835	4.170	572.38525	749.58606	992.00323	527.42047	680.94727	1005.07141	506.85953	736.64014	1052.62390	431.93890	633.76593	1233.56470	478.49362	567.61597	1226.87378	728.84216	749.28973	1326.70667	683.55457	730.35809	1373.40222	621.13190	730.69666	1362.60938	586.62012	1041.12170	977.00421	534.95953	1116.62976	992.07672	533.41217	1056.65881	1041.84045	442.04172	1171.54224	1209.47510	491.15823	1238.64758	1196.31470	722.09021	1048.22986	1329.08557	674.97131	1074.13416	1373.72021	599.71637	1062.16223	1343.51929	702.13177	727.74738	35.93710	624.09253	784.87592	32.67815	589.78271	664.03186	47.32396	421.56726	774.01373	74.84823	530.75037	810.02222	122.44968	504.68045	716.43799	128.70311	718.15240	813.60242	436.54089	716.72974	700.89728	439.65381	533.08392	719.91376	801.45349	709.09375	1084.47998	37.98940	641.16766	1033.51672	48.75126	607.75977	1144.43127	48.49632	429.04172	1061.76038	76.33617	547.82050	1019.87573	143.30203	512.28101	1108.53564	132.32156	719.10455	1011.05096	452.78265	701.86829	1125.36121	465.26730	509.17053	1065.86633	794.52081	612.11542	914.56281	1578.76660	728.89453	829.69257	1457.62830	725.76538	991.02002	1450.20789	748.45172	906.59595	1293.72205	628.77850	907.91101	1376.15698	626.25092	792.17499	996.10876	614.07233	1008.02234	992.36224	742.83405	903.54321	1121.57849	595.23053	792.73608	867.57813	576.37463	1013.09393	874.56641	427.00220	832.58789	925.60522	422.62772	951.63293	929.14319	516.35382	901.23657	1190.96033	483.58337	901.00952	1069.18396	466.97842	901.73468	1012.21991	444.69748	894.89911	965.36084	413.95340	892.59070	922.02808	372.23370	887.25043	808.47083	
